<svg width="102" height="48" viewBox="0 0 102 48" fill="none" xmlns="http://www.w3.org/2000/svg">
<g clip-path="url(#clip0_353_4107)">
<path d="M34.0554 19.6645C32.7549 20.1975 31.5142 20.6555 30.3125 21.217C28.8221 21.9182 28.8377 21.957 28.3799 23.525C27.943 25.018 27.5242 26.5187 27.0638 28.0039C26.9517 28.322 26.7746 28.6136 26.5436 28.8603C26.1873 29.2588 25.8361 29.2718 25.4122 28.9457C25.1369 28.7496 24.9174 28.4859 24.7752 28.1802C24.633 27.8746 24.5728 27.5375 24.6006 27.2018C24.6979 25.9868 24.8585 24.7777 25.0818 23.5793C25.3419 22.1769 25.7243 20.7952 26.0624 19.3592C25.3211 19.5895 24.5642 19.8094 23.8151 20.0578C23.1961 20.2622 22.5926 20.5287 21.9658 20.7098C21.4976 20.847 21.3363 21.1238 21.2583 21.5792C20.9488 23.4111 20.6366 25.2431 20.2491 27.0569C20.0728 27.931 19.7907 28.7807 19.409 29.5874C18.5428 31.3547 16.99 32.0533 15.0782 31.5875C13.5852 31.2253 12.1182 30.7544 10.6226 30.3947C9.17645 30.0506 7.70686 29.8048 6.22427 30.1851C4.73155 30.5753 3.44656 31.5211 2.63483 32.8269C2.25508 33.4013 2.39814 33.9266 2.82731 34.4726C2.7168 34.5365 2.59889 34.5869 2.47617 34.6226C1.21206 34.7986 0.624226 34.3018 0.195054 33.0702C0.00888628 32.5658 -0.0383987 32.0211 0.0580936 31.4925C0.154586 30.9639 0.391349 30.4705 0.743874 30.0635C2.03984 28.4152 3.93729 27.3422 6.02399 27.0776C8.99178 26.6662 11.7957 27.3363 14.6074 28.1333C15.2908 28.3361 16.016 28.3548 16.7091 28.1876C16.916 28.1356 17.1019 28.0216 17.2415 27.861C17.381 27.7004 17.4676 27.501 17.4894 27.2898C17.7001 26.2341 17.9186 25.1784 18.0772 24.1149C18.3685 22.1795 18.6182 20.2337 18.8835 18.3009C18.9017 18.1664 18.9043 18.0422 18.92 17.8248C18.7815 17.8747 18.6467 17.9343 18.5168 18.0033C17.7157 18.5208 16.912 19.0616 16.1238 19.6102C15.9509 19.7477 15.7397 19.8291 15.5188 19.8434C15.2978 19.8578 15.0778 19.8043 14.8883 19.6904C14.6741 19.5556 14.5157 19.3486 14.4422 19.1073C14.3687 18.866 14.3848 18.6064 14.4878 18.3759C14.705 17.9172 15.0211 17.5117 15.4138 17.1883C16.3787 16.4638 17.4035 15.8169 18.4206 15.1649C18.9252 14.8415 19.409 14.5387 19.7211 13.9902C19.8901 13.7323 20.1382 13.5355 20.4284 13.4287C20.7187 13.322 21.0358 13.3111 21.3328 13.3976C21.6298 13.4841 21.891 13.6634 22.0776 13.909C22.2642 14.1546 22.3663 14.4534 22.3689 14.7612C22.3403 15.522 22.1791 16.2749 22.075 17.033C22.0568 17.1676 22.0412 17.2918 22.01 17.5505C22.6394 17.3358 23.1935 17.1702 23.7319 16.9632C25.2561 16.3732 26.7777 15.7695 28.2967 15.152C28.5285 15.0444 28.7543 14.9243 28.973 14.7923C29.218 14.6285 29.5117 14.5524 29.8059 14.5767C30.1001 14.6009 30.3772 14.724 30.5917 14.9257C30.8063 15.1274 30.9455 15.3957 30.9864 15.6865C31.0274 15.9773 30.9677 16.2733 30.8171 16.5259C30.6324 16.9088 30.401 17.2685 30.1929 17.6385C30.12 17.7705 30.055 17.8973 29.9328 18.156C30.6923 17.8533 31.3243 17.5945 31.9564 17.3358C33.08 16.8571 34.2115 16.3888 35.3143 15.8661C35.7592 15.6091 36.1859 15.3221 36.5914 15.0071C36.8577 14.7957 37.1517 14.6216 37.4654 14.4896C37.6878 14.4252 37.9232 14.419 38.1487 14.4717C38.3742 14.5244 38.5822 14.6341 38.7526 14.7903C38.9229 14.9465 39.0498 15.1438 39.1209 15.3631C39.1921 15.5824 39.2051 15.8163 39.1587 16.042C39.0861 16.3302 38.9759 16.6077 38.8309 16.8674C37.7276 18.9837 36.9207 21.2402 36.4328 23.5742C36.3576 23.9353 36.3158 24.3025 36.3079 24.6712C36.2862 25.2559 36.4806 25.8281 36.8545 26.2797C37.2284 26.7313 37.7558 27.0308 38.3367 27.1216C38.4642 27.1449 38.6593 27.2354 38.6723 27.3182C38.6729 27.3911 38.6589 27.4634 38.6313 27.5309C38.6036 27.5985 38.5627 27.6598 38.511 27.7115C37.7307 28.5524 36.3339 28.7465 35.2389 28.1566C34.6824 27.86 34.2084 27.4309 33.8594 26.9075C33.5103 26.3842 33.2971 25.783 33.2387 25.1577C33.0176 23.4862 33.4312 21.8923 33.928 20.3139C33.9722 20.1665 34.0242 20.019 34.0684 19.8689C34.069 19.8005 34.0647 19.7322 34.0554 19.6645V19.6645Z" fill="#E3508E"/>
<path d="M89.7906 38.4751C89.8713 38.1258 89.9571 37.7765 90.0351 37.4401C90.9768 33.3768 92.2486 29.3963 93.8379 25.5378C94.098 24.8806 94.3425 24.213 94.5974 23.5506C94.6728 23.3565 94.6962 23.2065 94.4569 23.103C92.4619 22.2439 91.307 20.6449 90.5553 18.7043C90.1147 17.6054 89.9513 16.4159 90.0793 15.2397C90.1834 14.3548 90.7712 13.77 91.5515 13.7389C92.3319 13.7079 92.9431 14.2564 93.1122 15.1413C93.2812 16.0263 93.3853 16.9526 93.6038 17.8556C93.8204 18.7725 94.3374 19.5917 95.0734 20.1843C95.578 20.5905 95.7002 20.5362 95.9707 19.9721C96.8048 18.2334 97.6527 16.5006 98.5145 14.7739C98.656 14.4954 98.8307 14.2348 99.0347 13.9977C99.2725 13.701 99.6042 13.493 99.9758 13.4075C100.347 13.322 100.737 13.364 101.082 13.5268C101.427 13.6922 101.702 13.9742 101.858 14.3225C102.013 14.6707 102.04 15.0627 101.932 15.4286C101.666 16.3385 101.353 17.2341 100.993 18.1118C98.8423 23.4549 96.634 28.7747 94.5375 34.1385C93.6558 36.3922 93.0003 38.7338 92.2304 41.0341C92.0989 41.4836 91.9184 41.9174 91.692 42.3278C90.9975 43.4767 89.5669 43.4482 88.8751 42.2968C88.7942 42.1631 88.7229 42.0239 88.6618 41.8802C87.2728 38.5838 84.227 36.964 80.9003 37.2228C77.2198 37.4815 74.382 39.2669 72.4885 42.452C72.0464 43.1557 71.8338 43.9781 71.8798 44.8066C71.8817 45.214 72.0044 45.6117 72.2325 45.95C72.4606 46.2883 72.784 46.5521 73.1621 46.7084C73.4457 46.8326 73.9425 46.9102 73.8384 47.2828C73.7812 47.5157 73.3572 47.7253 73.0581 47.8236C70.9643 48.5015 68.9745 47.363 68.4334 45.143C67.9132 43.0006 68.3762 41.003 69.5389 39.1634C70.9252 36.9614 72.9827 35.6056 75.3756 34.7233C79.1107 33.3442 82.7418 33.7142 86.2506 35.4995C87.4757 36.1257 88.4381 37.0753 89.3224 38.1051C89.4239 38.2241 89.5331 38.3354 89.6424 38.4466C89.6554 38.4544 89.6918 38.4518 89.7906 38.4751Z" fill="#E3508E"/>
<path d="M69.2372 23.4375C69.0135 24.2965 68.8002 25.1581 68.5635 26.0249C67.9107 28.3744 67.2786 30.7289 66.5659 33.0577C66.3475 33.777 65.9079 34.4342 65.5411 35.1069C65.412 35.3268 65.2436 35.5215 65.0443 35.6813C64.8939 35.816 64.7061 35.9021 64.5055 35.9284C64.3049 35.9548 64.101 35.92 63.9207 35.8288C63.7335 35.7508 63.5766 35.6147 63.4735 35.4408C63.3704 35.2669 63.3265 35.0644 63.3485 34.8637C63.4084 34.3578 63.5022 33.8564 63.6294 33.363C65.3079 26.4493 66.9916 19.5364 68.6806 12.6245C69.2892 10.1457 69.9811 7.69019 70.6392 5.22434C70.6704 5.10531 70.6886 4.9837 70.7354 4.76377L66.3995 6.8001C66.5929 6.90764 66.775 7.0342 66.9431 7.17787C67.2292 7.4806 67.5777 7.77557 67.7234 8.14299C67.7896 8.29741 67.8119 8.46697 67.7878 8.63313C67.7637 8.7993 67.6942 8.95568 67.5868 9.0852C67.4795 9.21471 67.3384 9.31238 67.179 9.36753C67.0196 9.42268 66.848 9.43319 66.683 9.39791C65.6908 9.15384 64.7137 8.85232 63.7568 8.49489C63.43 8.35179 63.1408 8.13576 62.9115 7.86355C62.7388 7.692 62.6058 7.48504 62.5219 7.25711C62.4379 7.02918 62.4049 6.78577 62.4252 6.54385C62.4455 6.30193 62.5186 6.06734 62.6394 5.85642C62.7603 5.64551 62.9259 5.46335 63.1248 5.32266C63.4935 5.0567 63.9004 4.84736 64.3316 4.70167C66.4883 3.95566 68.5669 3.00242 70.5377 1.85546C71.1828 1.47511 71.755 0.973139 72.3793 0.561732C72.6671 0.333024 72.994 0.15773 73.3443 0.04424C73.5858 -0.00929585 73.8367 -0.00375032 74.0756 0.0604008C74.3144 0.124552 74.5341 0.245393 74.7157 0.412557C74.8973 0.57972 75.0354 0.788215 75.1182 1.02015C75.201 1.25209 75.226 1.50055 75.191 1.7442C75.1718 1.95559 75.1246 2.16353 75.0506 2.36261C73.4067 6.71213 72.2648 11.204 71.1646 15.7061C71.0944 15.9934 71.0319 16.2806 70.9435 16.6583C71.1374 16.6069 71.3276 16.5429 71.5131 16.4669C72.5535 15.9235 73.594 15.3672 74.6474 14.8212C74.9811 14.6291 75.3289 14.4622 75.6878 14.3218C75.9396 14.2125 76.2228 14.1975 76.4849 14.2798C76.7469 14.3621 76.9701 14.5361 77.1132 14.7695C77.3733 15.2404 77.2874 15.7864 76.7594 16.2003C75.3393 17.3155 73.9113 18.4178 72.4599 19.4864C71.586 20.1307 71.4949 19.8331 72.1608 20.8681C73.2974 22.6354 74.4783 24.3767 75.3107 26.3147C75.5109 26.7805 75.6358 27.2773 75.7892 27.7637C75.812 27.8603 75.8216 27.9595 75.8179 28.0587C75.8179 29.0316 75.2742 29.4197 74.4159 28.9591C73.9466 28.6895 73.5291 28.339 73.183 27.9241C71.9527 26.5088 70.7614 25.0598 69.5571 23.6238C69.4947 23.5487 69.4453 23.4634 69.3907 23.3831L69.2372 23.4375Z" fill="#E3508E"/>
<path d="M40.3917 24.0631C40.5841 23.0281 40.6518 21.9931 40.8677 20.9581C40.9091 20.8256 40.9229 20.6862 40.9081 20.5482C40.8933 20.4103 40.8504 20.2768 40.7818 20.156C40.2616 19.2633 40.4619 18.4069 41.0419 17.6177C41.5906 16.9035 42.3179 16.345 43.1514 15.9979C45.2322 15.069 47.3703 14.7948 49.5369 15.6642C52.3643 16.8182 53.7636 19.566 52.8793 22.4588C51.8181 25.9364 49.4199 28.203 45.8799 28.9792C42.821 29.6623 40.5139 27.6855 40.3917 24.5805C40.3917 24.4098 40.3917 24.239 40.3917 24.0631ZM46.5171 18.4405C46.0229 18.5026 45.5313 18.575 45.0345 18.6216C44.8634 18.628 44.6991 18.6902 44.567 18.7987C44.4349 18.9072 44.3423 19.0559 44.3036 19.2219C43.8465 20.4593 43.5553 21.7512 43.4375 23.0643C43.3864 23.6672 43.3907 24.2734 43.4505 24.8755C43.5311 25.6518 43.9291 26.0321 44.7068 26.1692C44.9868 26.2132 45.2721 26.2132 45.5521 26.1692C47.4171 25.8613 49.6254 23.5999 50.0155 21.6205C50.2392 20.4768 49.8621 19.6281 48.8633 19.033C48.1524 18.621 47.3395 18.4157 46.5171 18.4405Z" fill="#E3508E"/>
<path d="M84.794 23.396C86.2558 23.1812 87.7332 23.0674 89.1976 22.863C89.5893 22.7977 89.9871 22.776 90.3837 22.7983C90.8597 22.8423 91.0678 23.2433 90.9169 23.7065C90.8311 23.9567 90.689 24.1842 90.5015 24.3716C90.314 24.559 90.086 24.7015 89.8349 24.788C88.6145 25.3062 87.3658 25.7554 86.0945 26.1335C85.0434 26.3785 83.9713 26.524 82.8927 26.5682C82.3362 26.584 81.7808 26.5088 81.2488 26.3457C78.9365 25.7273 77.6073 23.9704 77.6463 21.5433C77.6516 19.5622 78.3874 17.6518 79.7142 16.1744C80.6349 15.1394 81.7378 14.314 83.1684 14.1406C84.2088 14.0138 85.2726 14.0009 86.1778 14.7306C87.9309 16.1459 87.9257 17.8355 86.5419 19.4863C85.6446 20.5601 84.3805 20.78 83.1424 21.088C82.6594 21.1887 82.166 21.2321 81.6728 21.2173C81.3528 21.2173 81.2878 21.3389 81.2878 21.6158C81.2658 21.9168 81.342 22.2169 81.505 22.4714C81.6681 22.7259 81.9094 22.9213 82.193 23.0286C83.0213 23.3439 83.9098 23.472 84.794 23.4037V23.396ZM82.297 18.604C83.0695 18.7502 83.8687 18.6535 84.5833 18.3271C85.0541 18.1124 85.0541 17.8743 84.625 17.5949C83.8056 17.0463 82.7132 17.5043 82.297 18.604Z" fill="#E3508E"/>
<path d="M59.0124 24.5238C60.2439 24.8187 61.5182 24.8941 62.7761 24.7464L63.4212 24.6713C63.507 24.6713 63.5903 24.6429 63.6813 24.6377C64.1131 24.6118 64.563 24.573 64.8101 25.0362C64.9974 25.3906 64.831 25.947 64.342 26.2497C63.6987 26.6664 63.0125 27.0134 62.2949 27.2847C60.9072 27.8244 59.4017 27.9939 57.9278 27.7763C56.9448 27.6024 56.0499 27.1027 55.3888 26.3586C54.7276 25.6144 54.339 24.6695 54.2863 23.6777C54.1641 21.3853 54.8872 19.3075 56.1539 17.4161C56.9908 16.1381 58.2759 15.2158 59.7589 14.8286C60.7995 14.5258 61.9105 14.5649 62.927 14.9399C64.0428 15.3823 64.5839 16.3578 64.2275 17.3204C64.1355 17.6104 63.9803 17.8767 63.773 18.1003C63.5658 18.3239 63.3116 18.4993 63.0284 18.6141C62.9357 18.6624 62.832 18.6862 62.7274 18.6832C62.6228 18.6802 62.5207 18.6506 62.4309 18.5971C62.341 18.5436 62.2666 18.468 62.2145 18.3777C62.1625 18.2873 62.1346 18.1852 62.1337 18.0811C62.1207 17.7111 61.8736 17.5636 61.5822 17.5222C61.3673 17.4907 61.1479 17.5148 60.945 17.592C59.7563 18.1095 58.6951 18.7952 57.9668 19.9026C57.4309 20.7184 57.2264 21.7061 57.3946 22.6661C57.5376 23.5975 58.0396 24.2755 58.9916 24.5083L59.0124 24.5238Z" fill="#E3508E"/>
<path d="M77.649 40.5528C78.4293 40.6227 79.233 40.8659 79.6492 41.7741C79.8443 42.1958 79.7324 42.377 79.3449 42.6409C78.3955 43.28 77.3629 43.8027 76.5878 44.6876C75.9194 45.4483 75.1677 45.6061 74.507 45.2051C73.8464 44.804 73.5759 43.9605 73.8464 43.0601C74.2729 41.6809 75.9272 40.5425 77.649 40.5528Z" fill="#E3508E"/>
<path d="M6.78089 31.7664C7.22827 31.8441 7.68346 31.8855 8.12043 32.0019C8.69179 32.1538 9.18594 32.5116 9.50679 33.0058C9.80331 33.4457 9.74089 33.5621 9.22848 33.6734C8.81231 33.7639 8.39615 33.8623 7.97217 33.9114C7.36114 33.9739 6.77414 34.1815 6.26068 34.5169C6.15263 34.5855 6.04059 34.6477 5.92515 34.7032C5.29049 35.0137 4.68705 34.9205 4.29429 34.4444C4.10016 34.2044 3.99562 33.9049 3.99847 33.5969C4.00132 33.2888 4.11137 32.9913 4.3099 32.7548C4.8015 32.1131 5.49598 31.8544 6.27109 31.7638C6.44436 31.7545 6.61802 31.7545 6.7913 31.7638C6.7861 31.7509 6.77829 31.7897 6.78089 31.7664Z" fill="#E3508E"/>
</g>
<defs>
<clipPath id="clip0_353_4107">
<rect width="102" height="48" fill="white"/>
</clipPath>
</defs>
</svg>
