<?xml version="1.0" standalone="no"?>
<!DOCTYPE svg PUBLIC "-//W3C//DTD SVG 20010904//EN"
 "http://www.w3.org/TR/2001/REC-SVG-20010904/DTD/svg10.dtd">
<svg version="1.0" xmlns="http://www.w3.org/2000/svg"
 width="300.000000pt" height="383.000000pt" viewBox="0 0 300.000000 383.000000"
 preserveAspectRatio="xMidYMid meet">
<metadata>
Created by potrace 1.10, written by Peter Selinger 2001-2011
</metadata>
<g transform="translate(0.000000,383.000000) scale(0.100000,-0.100000)"
fill="#000000" stroke="none">
<path d="M1345 3664 c-34 -17 -71 -62 -60 -72 4 -4 10 -1 12 6 31 87 152 84
189 -5 19 -45 11 -67 -47 -130 -40 -42 -49 -58 -48 -85 l2 -33 4 30 c3 18 24
50 53 81 54 57 65 82 56 128 -7 37 -37 69 -79 85 -37 14 -46 14 -82 -5z"/>
<path d="M1360 3295 c-21 -34 -24 -35 -83 -36 -34 0 -70 -4 -81 -8 -10 -4 -37
-43 -60 -86 -23 -46 -48 -80 -56 -80 -8 0 -28 -6 -45 -12 -16 -6 -109 -32
-205 -58 -186 -50 -236 -72 -268 -115 -11 -14 -55 -91 -98 -171 -63 -117 -178
-311 -264 -446 -13 -21 -12 -25 24 -60 79 -79 156 -176 156 -197 0 -37 20 -90
44 -120 l24 -28 56 21 c31 11 78 32 105 45 l48 25 13 -150 c24 -277 -4 -1027
-47 -1279 -4 -25 -7 -69 -5 -98 3 -51 5 -54 38 -68 56 -23 208 -62 354 -90
111 -22 174 -27 353 -31 138 -4 252 -1 312 6 97 13 273 55 360 88 l50 19 6
214 c4 118 10 475 14 792 l8 577 86 -43 c124 -62 121 -62 154 -16 15 22 35 63
44 92 13 45 29 66 110 145 l95 93 -20 27 c-26 39 -146 253 -227 408 -134 257
-156 284 -264 319 -91 29 -266 76 -283 76 -7 0 -24 9 -38 19 -22 18 -25 18
-36 3 -11 -16 -15 -15 -39 8 -15 14 -42 54 -59 90 -37 76 -58 90 -142 90 -61
0 -62 1 -78 35 -9 19 -21 35 -26 35 -4 0 -18 -16 -30 -35z m54 -50 c12 -8 50
-18 83 -21 34 -4 65 -9 70 -13 5 -3 26 -37 47 -74 23 -42 47 -72 62 -77 30
-12 30 -20 -4 -46 -35 -28 -133 -44 -265 -44 -125 0 -196 13 -254 46 -56 32
-60 42 -31 68 13 11 34 42 47 68 12 25 27 51 34 56 7 5 41 13 77 16 36 4 72
14 80 21 18 19 25 19 54 0z m-294 -240 c55 -57 111 -70 290 -70 168 0 219 10
261 48 55 52 60 53 203 12 72 -21 161 -46 197 -56 73 -21 134 -72 165 -138 79
-169 164 -329 243 -460 28 -46 51 -88 51 -92 0 -5 -11 -16 -24 -24 -13 -9 -27
-23 -30 -31 -3 -9 13 1 36 20 74 63 55 28 -28 -52 -59 -57 -91 -98 -123 -159
-24 -45 -53 -90 -64 -100 -19 -17 -20 -17 -14 0 5 12 1 17 -12 17 -11 0 -43
11 -73 25 -62 29 -108 33 -108 9 0 -8 -4 -13 -10 -9 -5 3 -7 12 -4 19 3 8 1
17 -4 20 -6 3 -10 -57 -11 -152 -1 -86 -4 -168 -7 -182 -5 -20 -3 -22 6 -10 9
12 10 -9 7 -90 -3 -61 -2 -97 3 -85 9 20 9 20 9 0 0 -11 -6 -47 -14 -80 -18
-74 -18 -78 -3 -69 11 7 10 -56 -8 -466 -2 -52 -4 -168 -4 -257 0 -140 -2
-164 -17 -179 -17 -17 -17 -17 5 -12 12 3 22 2 22 -2 0 -13 -200 -76 -297 -94
-208 -39 -583 -28 -818 24 -152 34 -291 76 -301 91 -4 8 1 9 17 4 21 -7 22 -6
11 8 -19 22 -17 69 12 322 19 158 26 271 26 403 0 107 4 182 9 182 6 0 8 10 5
23 -11 44 -15 325 -7 373 5 27 6 65 2 84 -5 19 -9 57 -10 83 -2 35 -8 51 -21
58 -10 6 -16 14 -13 19 12 19 -23 16 -85 -7 -36 -13 -75 -22 -88 -20 -18 4
-21 1 -17 -14 4 -11 2 -19 -3 -19 -5 0 -26 37 -46 82 -24 52 -56 103 -89 139
-117 128 -154 184 -83 128 27 -21 38 -11 12 11 -19 15 -18 16 89 195 49 83
108 189 131 236 24 48 47 90 53 93 6 4 18 23 27 42 10 20 33 46 53 59 32 21
272 95 374 115 21 4 41 10 44 14 15 14 41 4 73 -29z"/>
<path d="M1245 3105 c-55 -23 -95 -54 -95 -76 0 -5 22 2 49 15 27 14 72 34
101 45 54 21 56 20 62 -29 2 -19 9 -25 28 -25 22 0 25 5 28 37 l3 37 39 -14
c22 -8 72 -30 112 -49 39 -20 74 -34 76 -31 14 14 -16 39 -91 74 -89 43 -115
49 -147 29 -16 -10 -24 -10 -40 0 -29 18 -57 15 -125 -13z"/>
<path d="M945 344 c28 -7 57 -13 65 -13 8 0 -7 7 -35 15 -27 7 -57 13 -65 13
-8 0 8 -7 35 -15z"/>
<path d="M1538 303 c18 -2 45 -2 60 0 15 2 0 4 -33 4 -33 0 -45 -2 -27 -4z"/>
</g>
</svg>
