<?xml version="1.0" standalone="no"?>
<!DOCTYPE svg PUBLIC "-//W3C//DTD SVG 20010904//EN"
 "http://www.w3.org/TR/2001/REC-SVG-20010904/DTD/svg10.dtd">
<svg version="1.0" xmlns="http://www.w3.org/2000/svg"
 width="300.000000pt" height="415.000000pt" viewBox="0 0 300.000000 415.000000"
 preserveAspectRatio="xMidYMid meet">
<metadata>
Created by potrace 1.10, written by Peter Selinger 2001-2011
</metadata>
<g transform="translate(0.000000,415.000000) scale(0.100000,-0.100000)"
fill="#000000" stroke="none">
<path d="M1448 3964 c-4 -3 -14 -7 -25 -8 -10 -1 -22 -12 -28 -24 -5 -12 -13
-22 -18 -22 -4 0 -5 -4 -2 -10 3 -5 1 -10 -4 -10 -14 0 -14 -65 0 -93 6 -12
33 -43 60 -68 34 -32 49 -54 49 -72 0 -14 5 -29 10 -32 6 -4 10 6 10 24 0 23
-13 42 -54 83 -30 29 -58 66 -61 81 -20 76 32 147 107 147 35 0 47 -6 80 -41
39 -41 60 -48 37 -12 -21 35 -73 63 -115 63 -23 0 -43 -3 -46 -6z"/>
<path d="M1465 3556 c-16 -33 -17 -33 -108 -42 l-92 -9 -40 -77 c-22 -42 -51
-88 -64 -102 -22 -24 -26 -25 -42 -10 -16 14 -21 14 -56 -4 -21 -11 -103 -35
-183 -53 -287 -64 -275 -53 -475 -425 -59 -109 -132 -241 -162 -292 -29 -51
-51 -96 -48 -101 12 -20 194 -170 189 -156 -4 9 -25 29 -48 45 -108 77 -114
90 -74 161 17 29 86 159 154 288 149 280 200 356 258 381 22 11 106 35 186 55
80 20 164 41 187 47 40 10 44 9 63 -13 10 -13 19 -19 20 -12 0 6 -4 15 -10 18
-5 3 -10 14 -10 24 0 14 6 17 29 13 35 -5 64 24 106 104 38 73 56 84 131 84
46 0 68 5 87 20 31 25 32 25 65 0 16 -12 50 -22 87 -25 33 -3 68 -8 78 -11 10
-3 33 -37 52 -75 20 -39 47 -76 63 -86 15 -9 28 -18 30 -19 2 -1 -4 -16 -13
-34 -11 -21 -21 -30 -31 -26 -9 3 -17 6 -20 6 -2 0 -11 14 -20 31 -12 23 -36
41 -99 70 -95 45 -97 45 -136 22 -26 -16 -29 -16 -47 0 -10 9 -27 17 -38 17
-49 0 -214 -83 -214 -107 0 -17 -3 -18 92 27 45 22 97 43 115 46 31 6 32 5 35
-32 3 -36 5 -39 33 -39 28 0 30 3 33 38 3 37 5 38 30 32 15 -3 64 -25 110 -48
71 -35 81 -43 68 -53 -51 -37 -346 -43 -466 -10 -54 15 -115 13 -126 -5 -5 -9
7 -12 42 -10 12 1 50 -8 85 -20 56 -20 84 -23 224 -23 143 0 166 3 218 23 32
13 61 20 64 17 8 -8 60 21 71 39 10 19 15 18 282 -57 235 -66 247 -74 321
-218 24 -47 46 -87 49 -90 3 -3 32 -57 64 -120 33 -63 85 -161 118 -217 32
-56 58 -110 58 -119 0 -10 -8 -27 -17 -38 -18 -20 -18 -20 12 0 47 32 55 36
55 26 0 -5 -35 -35 -77 -67 -96 -71 -109 -87 -123 -150 -11 -53 -51 -119 -77
-129 -11 -5 -13 -2 -9 10 5 12 2 15 -9 10 -9 -3 -50 6 -93 19 -94 30 -103 30
-126 4 -23 -28 -24 -31 -36 -247 -18 -321 -14 -775 10 -1047 12 -132 22 -268
24 -302 2 -34 9 -69 16 -78 12 -14 11 -16 -13 -10 -21 6 -27 4 -27 -10 0 -9 4
-13 10 -10 6 3 10 2 10 -3 0 -12 -176 -43 -319 -57 -68 -7 -365 -6 -416 0 -16
2 -124 9 -240 15 -212 10 -273 15 -400 30 -97 13 -110 16 -107 29 2 8 -8 10
-33 5 -39 -7 -50 10 -12 20 16 4 19 8 9 15 -18 11 -22 180 -25 1007 -3 558 -5
655 -18 674 l-15 22 -72 -26 c-40 -14 -82 -26 -93 -26 -11 0 -17 -4 -14 -10 3
-5 2 -10 -2 -10 -14 0 -99 92 -127 137 -14 24 -59 70 -100 103 -40 33 -79 73
-85 88 -12 25 -13 26 -26 8 -21 -28 1 -62 90 -135 41 -35 90 -86 109 -114 40
-64 99 -117 129 -117 12 0 60 16 107 35 46 19 85 33 86 32 1 -1 -3 -132 -8
-292 -5 -159 -7 -355 -4 -435 3 -80 9 -343 12 -586 l7 -440 151 -17 c252 -28
806 -59 971 -54 83 2 225 15 317 28 l167 24 7 55 c4 30 2 93 -4 140 -34 252
-43 482 -39 933 2 300 8 481 17 539 l13 87 26 -13 c49 -25 194 -67 212 -61 27
9 56 55 64 100 12 73 25 92 109 154 131 96 130 69 10 267 -57 95 -146 254
-199 355 -53 101 -106 194 -118 207 -37 40 -104 67 -317 127 -113 32 -213 63
-223 69 -13 8 -20 8 -26 -2 -6 -9 -22 14 -54 76 -26 49 -54 95 -63 103 -9 8
-51 16 -97 19 l-80 5 -20 38 c-24 46 -41 47 -62 3z"/>
<path d="M404 2235 c7 -17 24 -39 36 -50 23 -20 23 -20 12 0 -6 11 -23 34 -37
50 l-26 30 15 -30z"/>
<path d="M2567 2213 c-3 -5 -10 -26 -16 -48 l-10 -40 19 24 c11 13 20 34 20
47 0 24 -5 30 -13 17z"/>
<path d="M1145 525 c-54 -17 -33 -18 30 -1 28 8 41 14 30 14 -11 0 -38 -5 -60
-13z"/>
</g>
</svg>
